<?xml version="1.0" encoding="utf-8"?>
<!-- Generator: Adobe Illustrator 17.0.0, SVG Export Plug-In . SVG Version: 6.00 Build 0)  -->
<!DOCTYPE svg PUBLIC "-//W3C//DTD SVG 1.1//EN" "http://www.w3.org/Graphics/SVG/1.1/DTD/svg11.dtd">
<svg version="1.1" xmlns="http://www.w3.org/2000/svg" xmlns:xlink="http://www.w3.org/1999/xlink" x="0px" y="0px" width="640px"
	 height="725px" viewBox="0 0 640 725" style="enable-background:new 0 0 640 725;" xml:space="preserve">
<g id="Layer_2">
	<path style="fill:none;stroke:#000000;stroke-width:40;stroke-miterlimit:10;" d="M296.2,579l-81.9-356.9l-198.6,49
		c-0.7,2.8-2.2,5.3-4.4,7.2L97,625.1l193.8-37.6C291.5,584.1,293.4,581.1,296.2,579z"/>
	<polygon style="fill:none;stroke:#000000;stroke-width:40;stroke-miterlimit:10;" points="319.3,236 213,222.8 300.9,578.8 
		388.8,517.7 	"/>
	<path style="fill:none;stroke:#000000;stroke-width:40;stroke-miterlimit:10;" d="M232,99.8c-0.3-1.4-0.5-2.8-0.4-4.1
		c-0.7-0.6-1.3-1.2-1.8-1.9L56,129.9L15.8,262.2c0.8,1,1.5,2,2.1,3.2l190.8-47.1l27.9-111.3C234.4,105.2,232.7,102.7,232,99.8z"/>
	<line style="fill:none;stroke:#000000;stroke-width:40;stroke-miterlimit:10;" x1="242.3" y1="99.1" x2="317.6" y2="227.9"/>
	
		<rect x="43.2" y="34" transform="matrix(0.9709 -0.2397 0.2397 0.9709 -13.7152 35.2719)" style="fill:none;stroke:#000000;stroke-width:40;stroke-miterlimit:10;" width="190" height="80"/>
	<circle cx="99.2" cy="517.1" r="28.2"/>
	<circle cx="171.5" cy="367.4" r="28.2"/>
	<circle cx="202" cy="549.4" r="28.2"/>
	<circle cx="220.2" cy="448.1" r="28.2"/>
	<circle cx="108.4" cy="437.6" r="28.2"/>
	<circle cx="94.1" cy="291.8" r="28.2"/>
	<circle cx="113.5" cy="191.2" r="28.2"/>
	<circle cx="176.3" cy="120" r="28.2"/>
	<path style="fill:none;stroke:#000000;stroke-width:40;stroke-miterlimit:10;" d="M566.2,354.2l-171.6-36.4l-44.9,281.4
		l220.1-241.4C568.4,356.8,567.2,355.6,566.2,354.2z"/>
	<path style="fill:none;stroke:#000000;stroke-width:40;stroke-miterlimit:10;" d="M567.1,355.3L350.6,603.9
		c0.2,0.9,0.3,1.9,0.3,2.9c0,3.7-1.5,7.2-4,9.7c-0.1,0.8-0.2,1.7-0.4,2.4c0.3,1.2,0.5,2.4,0.5,3.6c0,1.7-0.3,3.3-0.9,4.8
		c0.1,0.8,0.2,1.6,0.2,2.4c0,0.5,0,0.9-0.1,1.4c1.3,2.1,2,4.5,2,7.1c0,4.8-2.5,9.1-6.3,11.6c-0.1,0.5-0.2,1-0.4,1.5l64.1,55.6
		l243.9-280L567.1,355.3z"/>
	<line style="fill:none;stroke:#000000;stroke-width:40;stroke-miterlimit:10;" x1="363.8" y1="588.7" x2="439.6" y2="667.9"/>
	<line style="fill:none;stroke:#000000;stroke-width:40;stroke-miterlimit:10;" x1="408.9" y1="549.4" x2="477" y2="625.1"/>
	<line style="fill:none;stroke:#000000;stroke-width:40;stroke-miterlimit:10;" x1="446.7" y1="493.6" x2="518.2" y2="577.7"/>
	<line style="fill:none;stroke:#000000;stroke-width:40;stroke-miterlimit:10;" x1="487.6" y1="448.1" x2="558.8" y2="531.1"/>
	<line style="fill:none;stroke:#000000;stroke-width:40;stroke-miterlimit:10;" x1="530.7" y1="400.8" x2="600.2" y2="476.3"/>
</g>
<g id="Layer_1">
</g>
</svg>
