<?xml version="1.0" encoding="utf-8"?>
<!-- Generator: Adobe Illustrator 17.0.0, SVG Export Plug-In . SVG Version: 6.00 Build 0)  -->
<!DOCTYPE svg PUBLIC "-//W3C//DTD SVG 1.1//EN" "http://www.w3.org/Graphics/SVG/1.1/DTD/svg11.dtd">
<svg version="1.1" id="Layer_1" xmlns="http://www.w3.org/2000/svg" xmlns:xlink="http://www.w3.org/1999/xlink" x="0px" y="0px"
	 width="640px" height="725px" viewBox="0 0 640 725" style="enable-background:new 0 0 640 725;" xml:space="preserve">
<ellipse style="fill:none;stroke:#000000;stroke-width:40;stroke-miterlimit:10;" cx="223.9" cy="285.7" rx="110.9" ry="143.6"/>
<ellipse transform="matrix(0.8592 0.5116 -0.5116 0.8592 367.9716 -179.9321)" style="fill:none;stroke:#000000;stroke-width:40;stroke-miterlimit:10;" cx="510.9" cy="578.7" rx="110.9" ry="143.6"/>
<ellipse transform="matrix(0.9174 -0.398 0.398 0.9174 -205.083 99.4282)" style="fill:none;stroke:#000000;stroke-width:40;stroke-miterlimit:10;" cx="136.9" cy="543.7" rx="110.9" ry="143.6"/>
<circle cx="223.8" cy="301" r="23.7"/>
<circle cx="272.8" cy="348" r="23.7"/>
<circle cx="191.8" cy="372" r="23.7"/>
<circle cx="136.8" cy="301" r="23.7"/>
<circle cx="272.8" cy="236" r="23.7"/>
<circle cx="199.8" cy="195" r="23.7"/>
<line style="fill:none;stroke:#000000;stroke-width:40;stroke-miterlimit:10;" x1="149.1" y1="423.4" x2="36" y2="566.9"/>
<line style="fill:none;stroke:#000000;stroke-width:40;stroke-miterlimit:10;" x1="204.1" y1="463.9" x2="66.1" y2="626.5"/>
<line style="fill:none;stroke:#000000;stroke-width:40;stroke-miterlimit:10;" x1="254.7" y1="511.7" x2="123" y2="678.9"/>
<path style="fill:none;stroke:#000000;stroke-width:40;stroke-miterlimit:10;" d="M280.3,151.4c1.1-9-4.3-17-5.8-25.3
	c-3.9-21.5,0.4-35.8,12.2-54.9c20.5-33.1,51.9-57,88.5-31.1c27.5,19.4,42.7,53,77.2,62.5c41.8,11.5,79.5-19.5,118.7,1.3
	c24.6,13,37.6,45.8,34.8,73c-3.8,36.9-38.7,30-65.1,42.4c-37.5,17.6-13,61.5-1.3,88.8c14.6,34.2,1.9,63-34.5,75.1
	c-20.8,6.9-44.5-9.8-62.7,1.2c-21.4,12.9-21.2,46.2-39.1,61.7c-17.8,15.4-56.5,15.4-75.3,3c-11.2-7.4-18.3-17.9-25.8-28.6"/>
<circle style="fill:none;stroke:#000000;stroke-width:40;stroke-miterlimit:10;" cx="400.6" cy="236" r="71.5"/>
</svg>
