<?xml version="1.0" encoding="utf-8"?>
<!-- Generator: Adobe Illustrator 17.0.0, SVG Export Plug-In . SVG Version: 6.00 Build 0)  -->
<!DOCTYPE svg PUBLIC "-//W3C//DTD SVG 1.1//EN" "http://www.w3.org/Graphics/SVG/1.1/DTD/svg11.dtd">
<svg version="1.1" xmlns="http://www.w3.org/2000/svg" xmlns:xlink="http://www.w3.org/1999/xlink" x="0px" y="0px" width="640px"
	 height="725px" viewBox="0 0 640 725" style="enable-background:new 0 0 640 725;" xml:space="preserve">
<g id="Layer_2">
	<path style="fill:none;stroke:#000000;stroke-width:40;stroke-miterlimit:10;" d="M563.9,41c-29.4,0-53.2,23.8-53.2,53.2
		s23.8,53.2,53.2,53.2S617,123.5,617,94.1S593.2,41,563.9,41z M437.9,601c-29.4,0-53.2,23.8-53.2,53.2s23.8,53.2,53.2,53.2
		s53.2-23.8,53.2-53.2S467.2,601,437.9,601z"/>
	<path style="fill:none;stroke:#000000;stroke-width:40;stroke-miterlimit:10;" d="M406.5,545.8c-7.5,31.6-13.8,63.4-21.4,94.9"/>
	<path style="fill:none;stroke:#000000;stroke-width:40;stroke-miterlimit:10;" d="M516.8,63.9c-10.9,44.8-20.6,89.9-30.7,134.8
		c-3.4,15.1-6.8,30.2-10.4,45.2"/>
	<line style="fill:none;stroke:#000000;stroke-width:40;stroke-miterlimit:10;" x1="485.2" y1="667.5" x2="618.7" y2="91.1"/>
	<circle cx="490.2" cy="537.8" r="25.9"/>
	<circle cx="535.2" cy="190.8" r="25.9"/>
	<circle cx="516.2" cy="314.8" r="25.9"/>
</g>
<g id="Layer_1">
	<path style="fill:none;stroke:#000000;stroke-width:40;stroke-miterlimit:10;" d="M499.8,348.3c0,139.5-113.1,252.5-252.5,252.5
		S-5.2,487.8-5.2,348.3S107.8,95.8,247.3,95.8S499.8,208.8,499.8,348.3z M247.3,211.4c-73.4,0-132.9,59.5-132.9,132.9
		s59.5,132.9,132.9,132.9s132.9-59.5,132.9-132.9S320.7,211.4,247.3,211.4z M271.2,105.4L26.7,247.7 M374.5,135.2l-137.5,77.1
		 M135.8,269l-134,75 M127.2,370.3L7.6,437.3 M330.6,256.3l128.2-71.8 M160.2,442.3L40.6,509.3 M491.8,256.5l-128.2,71.8
		 M100.6,563.3l156.2-87.5 M508.8,334.5L353,421.7 M203.3,591.4L489,425"/>
</g>
</svg>
